<?xml version="1.0" standalone="no"?><!DOCTYPE svg PUBLIC "-//W3C//DTD SVG 1.1//EN" "http://www.w3.org/Graphics/SVG/1.1/DTD/svg11.dtd"><svg t="1614916079514" class="icon" viewBox="0 0 1024 1024" version="1.1" xmlns="http://www.w3.org/2000/svg" p-id="1417" xmlns:xlink="http://www.w3.org/1999/xlink" width="200" height="200"><defs><style type="text/css"></style></defs><path d="M939.10993 794.28227A509.439745 509.439745 0 0 0 1023.999488 511.999744C1023.999488 229.222285 794.777203 0 511.999744 0S0 229.222285 0 511.999744s229.222285 511.999744 511.999744 511.999744a509.439745 509.439745 0 0 0 282.282526-84.889558L879.188894 1023.999488l-0.750933-144.059661L1023.999488 879.188894l-84.889558-84.906624zM204.799898 511.999744c0-169.386582 137.813264-307.199846 307.199846-307.199846s307.199846 137.813264 307.199846 307.199846c0 72.41383-25.343987 138.939664-67.413299 191.522038l-48.691176-48.691176A237.397215 237.397215 0 0 0 750.932958 511.999744c0-131.754601-107.178613-238.933214-238.933214-238.933214s-238.933214 107.178613-238.933214 238.933214 107.178613 238.933214 238.933214 238.933214c53.57224 0 102.929015-17.937058 142.813795-47.837843l48.691176 48.691176A305.510247 305.510247 0 0 1 511.999744 819.19959c-169.386582 0-307.199846-137.813264-307.199846-307.199846z m365.875017 10.410661A58.197304 58.197304 0 0 0 571.733047 511.999744c0-32.93865-26.794653-59.733303-59.733303-59.733303s-59.733303 26.794653-59.733303 59.733303 26.794653 59.733303 59.733303 59.733303c3.566932 0 7.014396-0.443733 10.410661-1.058132l65.006901 65.0069A144.042595 144.042595 0 0 1 511.999744 657.066338c-79.991427 0-145.066594-65.075167-145.066594-145.066594s65.075167-145.066594 145.066594-145.066594 145.066594 65.075167 145.066594 145.066594a144.042595 144.042595 0 0 1-21.384523 75.417562l-65.0069-65.006901z" fill="#040000" p-id="1418"></path></svg>