<?xml version="1.0" standalone="no"?><!DOCTYPE svg PUBLIC "-//W3C//DTD SVG 1.1//EN" "http://www.w3.org/Graphics/SVG/1.1/DTD/svg11.dtd"><svg t="1595123135654" class="icon" viewBox="0 0 1024 1024" version="1.1" xmlns="http://www.w3.org/2000/svg" p-id="2287" xmlns:xlink="http://www.w3.org/1999/xlink" width="200" height="200"><defs><style type="text/css"></style></defs><path d="M872.555789 508.227368A53.894737 53.894737 0 0 0 835.368421 474.812632a309.355789 309.355789 0 0 0-52.277895-8.623158 331.991579 331.991579 0 0 0 35.031579-174.888421A53.894737 53.894737 0 0 0 752.64 242.526316 384.808421 384.808421 0 0 0 619.789474 311.242105a338.997895 338.997895 0 0 0-66.290527-188.631579 53.894737 53.894737 0 0 0-82.458947 0 338.997895 338.997895 0 0 0-66.290526 188.631579A384.808421 384.808421 0 0 0 271.36 242.526316a53.894737 53.894737 0 0 0-66.56 48.505263 331.991579 331.991579 0 0 0 35.031579 174.888421 309.355789 309.355789 0 0 0-51.2 8.892632 53.894737 53.894737 0 0 0-30.181053 82.458947 327.410526 327.410526 0 0 0 107.789474 101.052632A269.473684 269.473684 0 0 0 232.016842 700.631579 53.894737 53.894737 0 0 0 269.473684 781.473684a410.947368 410.947368 0 0 0 70.871579 6.467369 289.953684 289.953684 0 0 0 149.018948-38.265264 274.863158 274.863158 0 0 0 82.997894 165.187369 26.947368 26.947368 0 1 0 35.84-40.151579A215.578947 215.578947 0 0 1 544.606316 754.526316a293.995789 293.995789 0 0 0 139.856842 32.875789A410.947368 410.947368 0 0 0 754.526316 781.473684a53.894737 53.894737 0 0 0 36.648421-80.842105 269.473684 269.473684 0 0 0-32.336842-41.768421 327.410526 327.410526 0 0 0 107.789473-101.052632 53.894737 53.894737 0 0 0 5.928421-49.583158z m-238.753684 132.042106h-4.850526c71.68 13.473684 116.951579 87.309474 116.951579 87.309473a354.896842 354.896842 0 0 1-61.44 5.658948 212.345263 212.345263 0 0 1-168.151579-68.446316 5.389474 5.389474 0 0 0-8.353684 0 212.345263 212.345263 0 0 1-168.151579 68.446316 355.166316 355.166316 0 0 1-61.709474-5.658948s44.732632-74.105263 116.951579-87.578947h-4.581053c-21.827368 0-114.795789-6.467368-188.631579-113.448421a276.48 276.48 0 0 1 66.56-8.084211 180.816842 180.816842 0 0 1 99.166316 26.947369s-120.724211-96.471579-108.867368-250.341053a351.932632 351.932632 0 0 1 204.530526 165.726316S429.541053 254.652632 512 156.564211c82.458947 98.088421 48.774737 303.966316 48.774737 303.966315a351.932632 351.932632 0 0 1 204.530526-165.726315c11.587368 153.869474-109.136842 249.532632-109.136842 249.532631a180.816842 180.816842 0 0 1 99.166316-26.947368 276.749474 276.749474 0 0 1 66.56 8.08421c-73.296842 108.058947-166.534737 114.795789-188.362105 114.79579z" fill="#2c2c2c" p-id="2288"></path></svg>